<svg id="Layer_1" data-name="Layer 1" xmlns="http://www.w3.org/2000/svg" xmlns:xlink="http://www.w3.org/1999/xlink" viewBox="0 0 285.13 125.35"><defs><style>.cls-1{fill:none;}.cls-2{clip-path:url(#clip-path);}.cls-3{fill:#2c51a3;}</style><clipPath id="clip-path"><rect class="cls-1" x="-9.72" y="-15.59" width="309.44" height="154.72"/></clipPath></defs><title>ADNOC </title><g class="cls-2"><path class="cls-3" d="M264.75,103.14a41.45,41.45,0,0,1-11.28,20.3h30.15c5.74-31.38-15-64.81-48.61-72,6.77,1.84,36.51,15.79,29.74,51.68"/><path class="cls-3" d="M160.15,0V123.44h13.13c8,0,9.84.21,14.15-.61,18.87-2.67,36.09-18,37.94-31.58,2.87-16-6-30.15-22.77-33.64a8.36,8.36,0,0,0-1-.21c-.62,0-8.82,0-15-1.64A7.83,7.83,0,0,0,184.35,64s-8.41-8.82-3.08-20.51c0,0,2.67-5.54,11.29-11.28l.2-.21c2.26-2.87,8-7.79,16.2-11.48a64.88,64.88,0,0,1,19.28-5.34c36.51-3.48,56.2,24.62,56.2,24.62V0Z"/><path class="cls-3" d="M250.19,29.92c-17.44-2.25-32.2,2.26-43.89,10.26a55.15,55.15,0,0,1,8.61-3.9,9.84,9.84,0,0,0,7.38,7c5.13,1,10.05-1.84,11.08-6.77a8.42,8.42,0,0,0-.21-3.89c33.43-1,51.28,24.61,51.28,24.61V46.12c-4.92-4.92-18.67-14.56-34.25-16.2"/><path class="cls-3" d="M14.47,94.58h5.64l10.56,28.18H24.33L22,116.19H12.12l-2.35,6.57H3.9Zm6.11,16.91-3.53-10.1-3.28,10.1Z"/><path class="cls-3" d="M34.2,94.58H44.76c4.23,0,7.75,1.18,10.1,3.53s3.52,5.87,3.52,10.33a15.75,15.75,0,0,1-.94,6.1A12.18,12.18,0,0,1,54.63,119a13.22,13.22,0,0,1-4.7,2.81,16.59,16.59,0,0,1-6.11.94H34.2Zm9.62,23.25a11,11,0,0,0,4-.7,7.5,7.5,0,0,0,2.58-1.88,6.54,6.54,0,0,0,1.41-2.82,15.24,15.24,0,0,0,0-7.51,5.4,5.4,0,0,0-1.41-2.82,9.18,9.18,0,0,0-2.35-1.88,7.83,7.83,0,0,0-3.52-.7h-4.7V117.6h4Z"/><polygon class="cls-3" points="63.08 94.58 68.25 94.58 79.75 113.14 79.75 94.58 85.62 94.58 85.62 122.76 80.22 122.76 68.72 104.45 68.72 122.76 63.08 122.76 63.08 94.58"/><path class="cls-3" d="M103.94,123.47a14.34,14.34,0,0,1-5.64-.94,11,11,0,0,1-4.22-3,10.17,10.17,0,0,1-2.59-4.7,16.8,16.8,0,0,1-.94-6.11,16.75,16.75,0,0,1,.94-6.1,15.14,15.14,0,0,1,2.59-4.7,13.89,13.89,0,0,1,4.22-3.05,14.16,14.16,0,0,1,5.64-.94,14.16,14.16,0,0,1,5.64.94,10.78,10.78,0,0,1,4.22,3.05,10.16,10.16,0,0,1,2.58,4.7,16.54,16.54,0,0,1,.94,6.1,16.59,16.59,0,0,1-.94,6.11,14.92,14.92,0,0,1-2.58,4.7,14.06,14.06,0,0,1-4.22,3,14.34,14.34,0,0,1-5.64.94m0-4.93a6.82,6.82,0,0,0,5.64-2.59c1.17-1.64,1.87-4,1.87-7.28a13.4,13.4,0,0,0-1.87-7.28,7,7,0,0,0-5.64-2.34,6.84,6.84,0,0,0-5.64,2.58c-1.17,1.64-1.87,4-1.87,7.28a12.85,12.85,0,0,0,1.87,7.28,7.06,7.06,0,0,0,5.64,2.35"/><path class="cls-3" d="M146,113.14a26.89,26.89,0,0,1-.94,4.22,10.5,10.5,0,0,1-2.34,3.29,8.86,8.86,0,0,1-3.53,2.11,15.58,15.58,0,0,1-4.93.71,14.06,14.06,0,0,1-5.63-1.18,8.66,8.66,0,0,1-4-3.05,9.9,9.9,0,0,1-2.34-4.7,23.66,23.66,0,0,1-.94-6.1,16.59,16.59,0,0,1,.94-6.11,14.87,14.87,0,0,1,2.58-4.69,16.33,16.33,0,0,1,4-3.06,13.84,13.84,0,0,1,5.4-.94,14.13,14.13,0,0,1,4.7.71,10.89,10.89,0,0,1,3.29,1.88,9,9,0,0,1,2.11,3,19.39,19.39,0,0,1,1.17,4l-5.87.71a8.92,8.92,0,0,0-1.64-4,8.29,8.29,0,0,0-4-.93,5.92,5.92,0,0,0-5.17,2.58c-1.17,1.64-1.64,4-1.64,7.28a12.77,12.77,0,0,0,1.88,7.28,5.8,5.8,0,0,0,4.93,2.58,5.15,5.15,0,0,0,4-1.41,6.87,6.87,0,0,0,1.64-4H146Z"/><path class="cls-3" d="M34.2,76.74V51.61h5.87V81.67H15.41c-4,0-6.81-.94-8.69-2.58S3.9,74.86,3.9,71.34a12.71,12.71,0,0,1,1.18-5.17A11,11,0,0,1,8.6,63.12,10.28,10.28,0,0,1,14,61.71l.71,4.93a7.09,7.09,0,0,0-4,1.41,4.87,4.87,0,0,0-1.17,3.52,5.15,5.15,0,0,0,1.41,4,6.94,6.94,0,0,0,4.23,1.18h19M28.56,63.82V65.7H21.05V63.82H22V62.65a2.74,2.74,0,0,1,.94-2.35,3.51,3.51,0,0,1,2.35-.71,3.51,3.51,0,0,1,2.35.71,4.36,4.36,0,0,1,.94,2.11l-1.88.24c0-.47-.23-.71-.23-.94-.24-.24-.47-.24-.94-.24a1.25,1.25,0,0,0-1.41,1.41v.94Z"/><path class="cls-3" d="M96,60.77V76.5H63.78V70.4c0-3.29-.7-5.64-2.34-7.28s-4-2.35-7-2.35a8.93,8.93,0,0,0-9.63,9.63,11.14,11.14,0,0,0,3.29,8.45c2.11,1.88,5.4,2.82,9.39,2.82h.71v.7c0,2.35-.24,3.53-.94,4.23L60,91.06c.47-.23.94-.7,1.41-.94,1.64-1.64,2.34-5.16,2.34-8.45h38.05V60.77Zm-37.81,16H56.27c-4,0-5.87-2.35-5.87-6.11,0-1.64.23-2.82.94-3.52.7-.94,1.64-1.18,3-1.18a7.1,7.1,0,0,1,2.35.47,3,3,0,0,1,1.17,1.65,18.84,18.84,0,0,1,.47,4.23v4.46Z"/><rect class="cls-3" x="95.95" y="52.32" width="5.64" height="5.64"/><path class="cls-3" d="M128.6,76.74V73.68q0-3.87-1.41-5.63a5.31,5.31,0,0,0-4.46-1.88,13.3,13.3,0,0,0-4.23.7l-1.41-4.93A17.62,17.62,0,0,1,123.2,61c3.52,0,6.33.94,8.21,3.06s2.82,5.16,2.82,9.15V81.9H106.05V76.74Z"/><path class="cls-3" d="M146,50.2v1.88h-7.51V50.2h.94V49a2.71,2.71,0,0,1,.94-2.35,3.59,3.59,0,0,1,2.35-.94,3.48,3.48,0,0,1,2.34.7,4.4,4.4,0,0,1,.94,2.12l-1.88.23c0-.47-.23-.7-.23-.94-.23-.23-.47-.23-.94-.23A1.25,1.25,0,0,0,141.51,49V50.2Z"/><rect class="cls-3" x="139.16" y="54.43" width="5.64" height="27.24"/></g></svg>