<svg id="Layer_1" data-name="Layer 1" xmlns="http://www.w3.org/2000/svg" xmlns:xlink="http://www.w3.org/1999/xlink" viewBox="0 0 165.9 137.46"><defs><style>.cls-1{fill:none;}.cls-2{fill:#d3343e;}.cls-3{fill:#26994d;}.cls-4{clip-path:url(#clip-path);}.cls-5{fill:#221f20;}.cls-6{fill:#1d1d1b;}</style><clipPath id="clip-path"><rect class="cls-1" x="-18.78" y="-14.24" width="201.96" height="166.42"/></clipPath></defs><title>Al Ain University</title><polygon class="cls-2" points="94.96 29.93 60.88 34.53 58.72 38.98 95.22 30.15 94.96 29.93"/><polygon class="cls-3" points="82.2 61.25 -1.49 0 82.2 75.8 165.9 0 82.2 61.25"/><g class="cls-4"><path class="cls-5" d="M113.11,50V49.9c.56-11.46-2.37-17.95-2.37-17.95s1,24.59-6.26,35.85c-.3.59-.62,1.17-1,1.74a26.43,26.43,0,0,1-2.88,3.93,21.73,21.73,0,0,1-3.39,3.11,21.42,21.42,0,0,1-3.85,2.3,22.53,22.53,0,0,1-4.3,1.48L88,80.61a27.41,27.41,0,0,1-6.7.47,14.45,14.45,0,0,1-5.82-2,19.76,19.76,0,0,1-3-2,21.51,21.51,0,0,1-2.54-2.42A25,25,0,0,1,67.79,72a29.74,29.74,0,0,1-1.79-3,34.51,34.51,0,0,1-1.46-3.22c-.44-1.08-.82-2.19-1.17-3.31s-.63-2.2-.9-3.32-.48-2.16-.67-3.25-.34-2.06-.47-3.09-.23-1.9-.31-2.85-.14-1.68-.18-2.52-.07-1.4-.09-2.11c0-.53,0-1.07,0-1.6,0-.35,0-.69,0-1,0,0,0-.32,0-.36S55.63,52.44,58.69,68c3,11.74,9.58,22.81,23.47,22.81,16.7-.63,26.15-15.55,29.24-28.89.38-1.61.68-3.17.93-4.67a55.69,55.69,0,0,0,.78-7.24"/><path class="cls-2" d="M103.87,62.26S109,52.1,106,36.52c-3-11.74-9.59-22.81-23.47-22.81-16.71.63-26.16,15.56-29.25,28.89-4.38,18.85.65,30,.65,30s-1-24.59,6.26-35.85c.3-.59.63-1.17,1-1.73A26,26,0,0,1,64,31.06,22.19,22.19,0,0,1,67.38,28a21.5,21.5,0,0,1,3.86-2.3,23.15,23.15,0,0,1,4.29-1.48l1.12-.25a26.92,26.92,0,0,1,6.7-.46,14.33,14.33,0,0,1,5.83,1.94,20.19,20.19,0,0,1,3,2A22.4,22.4,0,0,1,94.7,29.8a26.28,26.28,0,0,1,2.15,2.77,31.7,31.7,0,0,1,1.79,3c.54,1,1,2.12,1.46,3.22s.82,2.19,1.16,3.31.64,2.21.9,3.32.48,2.16.67,3.25.34,2.06.48,3.09.22,1.9.31,2.85.13,1.68.18,2.52.06,1.41.08,2.11c0,.53,0,1.07,0,1.61,0,.34,0,.68,0,1,0,0,0,.32,0,.36"/><path class="cls-5" d="M111.07,63.27l40.51-41.66L112.72,54v0"/><path class="cls-6" d="M41.49,118.2H39v2.7h2.45Zm16.16,15.72-3.74-6.84h-2.2v10.68h2.2v-6.83l3.74,6.83h2.2V127.08h-2.2Zm-10.58,3.84h2.27V127.08H47.07Zm-18-10.68H26.84v10.68h6.72v-1.87H29.11Zm55.12-26.17H81.77v2.7h2.46Zm-59.87,1.53H21.9v2.7h2.46Zm63.91-1.53H85.81v2.7h2.46ZM40.2,127.08l-3.82,10.68h2.46l.62-2h3.69l.61,2h2.47L42.4,127.08Zm-.2,6.85,1.32-4.16,1.28,4.16Zm-20-6.85-3.81,10.68H18.6l.63-2h3.69l.61,2H26l-3.82-10.68Zm-.19,6.85,1.32-4.16,1.28,4.16Zm47.69-22.06V101.51h-3V112.2a2.16,2.16,0,0,1-.43,1.43,1.51,1.51,0,0,1-1.21.51H57.67A6.35,6.35,0,0,1,60,110.87a5.45,5.45,0,0,0-1.31-3.71,5,5,0,0,0-3.8-1.43,4.79,4.79,0,0,0-5.1,5.14A6.35,6.35,0,0,1,52,114.14H45.56a1.49,1.49,0,0,1-.67-.12,6.1,6.1,0,0,0,.34-2.15V106h-3v6.24a2.16,2.16,0,0,1-.44,1.43,1.51,1.51,0,0,1-1.21.51H30.09a2.32,2.32,0,0,1-.66-.08v-8.12h-3v9.78a3.77,3.77,0,0,1-.92,2.66,3.66,3.66,0,0,1-2.81,1.1,3.72,3.72,0,0,1-2.57-1,4.2,4.2,0,0,1-1.29-3.23,7.41,7.41,0,0,1,1.17-4L18,109.82a8.8,8.8,0,0,0-1.34,2.65,10.17,10.17,0,0,0-.49,3.15A6.43,6.43,0,0,0,17,119a6.1,6.1,0,0,0,2.33,2.26,6.81,6.81,0,0,0,3.36.84,7,7,0,0,0,4.56-1.41,6,6,0,0,0,2.08-4.16,3.37,3.37,0,0,0,.82.09H40.62a5,5,0,0,0,3-.85c.27.57.91.85,1.92.85h7.25a4.27,4.27,0,0,0,2-.42,4.37,4.37,0,0,0,2,.42h6q4.61,0,4.6-4.7m-11.58-.1a8.47,8.47,0,0,0-.92,2c0,.09-.05.13-.11.13s-.09,0-.12-.13a8.9,8.9,0,0,0-.92-2,4.42,4.42,0,0,0-1.14-1.3,2.82,2.82,0,0,1,.66-1.66,2.1,2.1,0,0,1,2.88-.17,2.54,2.54,0,0,1,.81,1.83,4.28,4.28,0,0,0-1.14,1.3m-13.2,9.13h2.46v-2.7H42.68Zm84.25,16.86h2.28V127.08h-2.28Zm6.83-21.19h14.47v-2.43h-.08a1.62,1.62,0,0,1-1.48-.65,5.74,5.74,0,0,1-.53-2.07,19,19,0,0,0-.41-2.43,3.88,3.88,0,0,0-.65-1.32,5.21,5.21,0,0,0-4.35-1.94,5.41,5.41,0,0,0-2.76.69,4.61,4.61,0,0,0-1.87,2l2.23,1.26a3.64,3.64,0,0,1,1-1.18,2.37,2.37,0,0,1,1.32-.36,2.29,2.29,0,0,1,1.08.28,1.92,1.92,0,0,1,.78.74,6,6,0,0,1,.65,2.4,13,13,0,0,0,.2,1.66,3.33,3.33,0,0,0,.38.91H133.53a1.47,1.47,0,0,1-1.14-.48,2.09,2.09,0,0,1-.48-1.46V101.51h-3v10.36q0,4.69,4.56,4.7Zm-12.27-10.84c-3.12,0-4.67,1.59-4.67,4.76v1.71a2.16,2.16,0,0,1-.44,1.43,1.5,1.5,0,0,1-1.21.51H110a6.36,6.36,0,0,1,2.3-3.27,5.45,5.45,0,0,0-1.32-3.71,5,5,0,0,0-3.79-1.43,5.14,5.14,0,0,0-3.4,1.1,5.08,5.08,0,0,0-1.71,4,6.42,6.42,0,0,1,2.3,3.27H91.22a1.45,1.45,0,0,1-1.14-.5,2.16,2.16,0,0,1-.46-1.44v-7h-3v.85a4.77,4.77,0,0,0-1.71-.34H84.8a4.52,4.52,0,0,0-3,1,4.7,4.7,0,0,0-1.48,3.73v.83a5.07,5.07,0,0,0,1.07,3.45,4.18,4.18,0,0,0,3.35,1.31,5.41,5.41,0,0,0,1.54-.24,4.64,4.64,0,0,0,1.36-.62,4.34,4.34,0,0,0,3.56,1.35h14a4.29,4.29,0,0,0,2-.42,4.35,4.35,0,0,0,2,.42h6a5.52,5.52,0,0,0,2.59-.55,4.54,4.54,0,0,0,3.73,1.43q4.65,0,4.65-4.76v-2.2q0-4.76-4.65-4.76M85,113.66c-1.12,0-1.69-.67-1.69-2v-1.49a2.26,2.26,0,0,1,.44-1.49,1.56,1.56,0,0,1,1.25-.52,2.66,2.66,0,0,1,1.69.47v3.1a12.1,12.1,0,0,0,.06,1.26,2.74,2.74,0,0,1-1.75.68m23.22-1.89a8.9,8.9,0,0,0-.92,2c0,.09,0,.13-.1.13s-.1,0-.13-.13a8.88,8.88,0,0,0-.91-2,4.44,4.44,0,0,0-1.15-1.3,2.76,2.76,0,0,1,.67-1.66,2.09,2.09,0,0,1,2.87-.17,2.51,2.51,0,0,1,.82,1.83,4.44,4.44,0,0,0-1.15,1.3m15,1.25c0,1.34-.57,2-1.69,2s-1.71-.67-1.71-2v-2.86q0-2,1.71-2c1.12,0,1.69.67,1.69,2ZM130.8,129h2.81v8.81h2.27V129h2.8v-1.87H130.8Zm-6.55,3.35a4.19,4.19,0,0,0-.79-.4,13.7,13.7,0,0,0-1.41-.41,5,5,0,0,1-1.49-.56,1.13,1.13,0,0,1-.49-1,1.11,1.11,0,0,1,.33-.84,1.43,1.43,0,0,1,1-.34,2.19,2.19,0,0,1,1.87,1l1.69-1.09a3.73,3.73,0,0,0-3.52-1.73,4.06,4.06,0,0,0-2.54.72,2.87,2.87,0,0,0-1,2.43,3,3,0,0,0,.59,2,4.46,4.46,0,0,0,2.42,1.26c.73.19,1.17.3,1.32.35a1.4,1.4,0,0,1,.44.22,1,1,0,0,1,.45.94c0,.84-.56,1.27-1.66,1.27a3.15,3.15,0,0,1-1.4-.27,2.1,2.1,0,0,1-.9-.85l-1.73,1.1q1.08,1.89,4,1.89a4.38,4.38,0,0,0,3-.89,3,3,0,0,0,.86-2.37,2.67,2.67,0,0,0-1-2.38m21.64-5.22-2,4.56-2-4.56h-2.41l3.25,6.84v3.84h2.28v-3.84l3.25-6.84Zm-75.24,6.69a4.66,4.66,0,0,1-.17,1.49,1.19,1.19,0,0,1-.51.62,1.89,1.89,0,0,1-.94.19,2,2,0,0,1-.9-.16,1.14,1.14,0,0,1-.51-.53,4.21,4.21,0,0,1-.22-1.61v-6.69H65.13v6.69a9.2,9.2,0,0,0,.11,1.69,2.82,2.82,0,0,0,.4,1,2.89,2.89,0,0,0,1.19,1,5.26,5.26,0,0,0,2.2.39,5.69,5.69,0,0,0,2-.28,2.87,2.87,0,0,0,1.27-.94,2.62,2.62,0,0,0,.53-1.1,9.26,9.26,0,0,0,.14-1.83v-6.69H70.65Zm71.26-15.57h-3v2.74h3ZM85.76,137.76H88V127.08H85.76Zm-4.57-3.84-3.74-6.84h-2.2v10.68h2.2v-6.83l3.74,6.83h2.2V127.08h-2.2ZM70.4,116.57h3V101.51h-3Zm32,16.73h3.74v-1.87h-3.74V129h4.42v-1.87h-6.66v10.68h6.72v-1.87h-4.48Zm-8.3,1.41-2.28-7.63H89.53l3.54,10.68h2l3.56-10.68H96.35Zm21.66-2.29a3.87,3.87,0,0,0,.5-2.2,3.25,3.25,0,0,0-.76-2.36,2.38,2.38,0,0,0-1-.6,6.3,6.3,0,0,0-1.69-.18h-4v10.68H111v-4.25h1.11l2,4.25h2.51l-2.27-4.44a2.42,2.42,0,0,0,1.4-.9m-2.08-1a1.53,1.53,0,0,1-1.11.33H111v-2.84h1.55a1.57,1.57,0,0,1,1.13.33,1.48,1.48,0,0,1,.33,1.09,1.54,1.54,0,0,1-.32,1.09"/></g></svg>